# This file uses centimeters as units for non-parametric coordinates.

mtllib Pion_smooth.mtl
v 0.064267 -0.110958 -0.037104
v 0.037104 -0.110958 -0.064267
v 0.000000 -0.110958 -0.074209
v -0.037104 -0.110958 -0.064267
v -0.064267 -0.110958 -0.037104
v -0.074209 -0.110958 0.000000
v -0.064267 -0.110958 0.037104
v -0.037104 -0.110958 0.064267
v 0.000000 -0.110958 0.074209
v 0.037104 -0.110958 0.064267
v 0.064267 -0.110958 0.037104
v 0.074209 -0.110958 0.000000
v 0.124154 -0.099482 -0.071680
v 0.071680 -0.099482 -0.124154
v 0.000000 -0.099482 -0.143360
v -0.071680 -0.099482 -0.124154
v -0.124154 -0.099482 -0.071680
v -0.143360 -0.099482 0.000000
v -0.124154 -0.099482 0.071680
v -0.071680 -0.099482 0.124154
v 0.000000 -0.099482 0.143360
v 0.071680 -0.099482 0.124154
v 0.124154 -0.099482 0.071680
v 0.143360 -0.099482 0.000000
v 0.175580 -0.081227 -0.101371
v 0.101371 -0.081227 -0.175580
v 0.000000 -0.081227 -0.202742
v -0.101371 -0.081227 -0.175580
v -0.175580 -0.081227 -0.101371
v -0.202742 -0.081227 0.000000
v -0.175580 -0.081227 0.101371
v -0.101371 -0.081227 0.175580
v 0.000000 -0.081227 0.202742
v 0.101371 -0.081227 0.175580
v 0.175580 -0.081227 0.101371
v 0.202742 -0.081227 0.000000
v 0.215041 -0.057436 -0.124154
v 0.124154 -0.057436 -0.215041
v 0.000000 -0.057436 -0.248308
v -0.124154 -0.057436 -0.215041
v -0.215041 -0.057436 -0.124154
v -0.248308 -0.057436 0.000000
v -0.215041 -0.057436 0.124154
v -0.124154 -0.057436 0.215041
v 0.000000 -0.057436 0.248308
v 0.124154 -0.057436 0.215041
v 0.215041 -0.057436 0.124154
v 0.248308 -0.057436 0.000000
v 0.239847 -0.029731 -0.138476
v 0.138476 -0.029731 -0.239847
v 0.000000 -0.029731 -0.276951
v -0.138476 -0.029731 -0.239847
v -0.239847 -0.029731 -0.138476
v -0.276951 -0.029731 0.000000
v -0.239847 -0.029731 0.138476
v -0.138476 -0.029731 0.239847
v 0.000000 -0.029731 0.276951
v 0.138476 -0.029731 0.239847
v 0.239847 -0.029731 0.138476
v 0.276951 -0.029731 0.000000
v 0.248308 0.000000 -0.143360
v 0.143360 0.000000 -0.248308
v 0.000000 0.000000 -0.286721
v -0.143360 0.000000 -0.248308
v -0.248308 0.000000 -0.143360
v -0.286721 0.000000 0.000000
v -0.248308 0.000000 0.143360
v -0.143360 0.000000 0.248308
v 0.000000 0.000000 0.286721
v 0.143360 0.000000 0.248308
v 0.248308 0.000000 0.143360
v 0.286721 0.000000 0.000000
v 0.239847 0.029731 -0.138476
v 0.138476 0.029731 -0.239847
v 0.000000 0.029731 -0.276951
v -0.138476 0.029731 -0.239847
v -0.239847 0.029731 -0.138476
v -0.276951 0.029731 0.000000
v -0.239847 0.029731 0.138476
v -0.138476 0.029731 0.239847
v 0.000000 0.029731 0.276951
v 0.138476 0.029731 0.239847
v 0.239847 0.029731 0.138476
v 0.276951 0.029731 0.000000
v 0.215041 0.057436 -0.124154
v 0.124154 0.057436 -0.215041
v 0.000000 0.057436 -0.248308
v -0.124154 0.057436 -0.215041
v -0.215041 0.057436 -0.124154
v -0.248308 0.057436 0.000000
v -0.215041 0.057436 0.124154
v -0.124154 0.057436 0.215041
v 0.000000 0.057436 0.248308
v 0.124154 0.057436 0.215041
v 0.215041 0.057436 0.124154
v 0.248308 0.057436 0.000000
v 0.175580 0.081227 -0.101371
v 0.101371 0.081227 -0.175580
v 0.000000 0.081227 -0.202742
v -0.101371 0.081227 -0.175580
v -0.175580 0.081227 -0.101371
v -0.202742 0.081227 0.000000
v -0.175580 0.081227 0.101371
v -0.101371 0.081227 0.175580
v 0.000000 0.081227 0.202742
v 0.101371 0.081227 0.175580
v 0.175580 0.081227 0.101371
v 0.202742 0.081227 0.000000
v 0.124154 0.099482 -0.071680
v 0.071680 0.099482 -0.124154
v 0.000000 0.099482 -0.143360
v -0.071680 0.099482 -0.124154
v -0.124154 0.099482 -0.071680
v -0.143360 0.099482 0.000000
v -0.124154 0.099482 0.071680
v -0.071680 0.099482 0.124154
v 0.000000 0.099482 0.143360
v 0.071680 0.099482 0.124154
v 0.124154 0.099482 0.071680
v 0.143360 0.099482 0.000000
v 0.064267 0.110958 -0.037104
v 0.037104 0.110958 -0.064267
v 0.000000 0.110958 -0.074209
v -0.037104 0.110958 -0.064267
v -0.064267 0.110958 -0.037104
v -0.074209 0.110958 0.000000
v -0.064267 0.110958 0.037104
v -0.037104 0.110958 0.064267
v 0.000000 0.110958 0.074209
v 0.037104 0.110958 0.064267
v 0.064267 0.110958 0.037104
v 0.074209 0.110958 0.000000
v 0.000000 -0.114872 0.000000
v 0.000000 0.114872 0.000000
vt 0.000000 0.083333
vt 0.083333 0.083333
vt 0.166667 0.083333
vt 0.250000 0.083333
vt 0.333333 0.083333
vt 0.416667 0.083333
vt 0.500000 0.083333
vt 0.583333 0.083333
vt 0.666667 0.083333
vt 0.750000 0.083333
vt 0.833333 0.083333
vt 0.916667 0.083333
vt 1.000000 0.083333
vt 0.000000 0.166667
vt 0.083333 0.166667
vt 0.166667 0.166667
vt 0.250000 0.166667
vt 0.333333 0.166667
vt 0.416667 0.166667
vt 0.500000 0.166667
vt 0.583333 0.166667
vt 0.666667 0.166667
vt 0.750000 0.166667
vt 0.833333 0.166667
vt 0.916667 0.166667
vt 1.000000 0.166667
vt 0.000000 0.250000
vt 0.083333 0.250000
vt 0.166667 0.250000
vt 0.250000 0.250000
vt 0.333333 0.250000
vt 0.416667 0.250000
vt 0.500000 0.250000
vt 0.583333 0.250000
vt 0.666667 0.250000
vt 0.750000 0.250000
vt 0.833333 0.250000
vt 0.916667 0.250000
vt 1.000000 0.250000
vt 0.000000 0.333333
vt 0.083333 0.333333
vt 0.166667 0.333333
vt 0.250000 0.333333
vt 0.333333 0.333333
vt 0.416667 0.333333
vt 0.500000 0.333333
vt 0.583333 0.333333
vt 0.666667 0.333333
vt 0.750000 0.333333
vt 0.833333 0.333333
vt 0.916667 0.333333
vt 1.000000 0.333333
vt 0.000000 0.416667
vt 0.083333 0.416667
vt 0.166667 0.416667
vt 0.250000 0.416667
vt 0.333333 0.416667
vt 0.416667 0.416667
vt 0.500000 0.416667
vt 0.583333 0.416667
vt 0.666667 0.416667
vt 0.750000 0.416667
vt 0.833333 0.416667
vt 0.916667 0.416667
vt 1.000000 0.416667
vt 0.000000 0.500000
vt 0.083333 0.500000
vt 0.166667 0.500000
vt 0.250000 0.500000
vt 0.333333 0.500000
vt 0.416667 0.500000
vt 0.500000 0.500000
vt 0.583333 0.500000
vt 0.666667 0.500000
vt 0.750000 0.500000
vt 0.833333 0.500000
vt 0.916667 0.500000
vt 1.000000 0.500000
vt 0.000000 0.583333
vt 0.083333 0.583333
vt 0.166667 0.583333
vt 0.250000 0.583333
vt 0.333333 0.583333
vt 0.416667 0.583333
vt 0.500000 0.583333
vt 0.583333 0.583333
vt 0.666667 0.583333
vt 0.750000 0.583333
vt 0.833333 0.583333
vt 0.916667 0.583333
vt 1.000000 0.583333
vt 0.000000 0.666667
vt 0.083333 0.666667
vt 0.166667 0.666667
vt 0.250000 0.666667
vt 0.333333 0.666667
vt 0.416667 0.666667
vt 0.500000 0.666667
vt 0.583333 0.666667
vt 0.666667 0.666667
vt 0.750000 0.666667
vt 0.833333 0.666667
vt 0.916667 0.666667
vt 1.000000 0.666667
vt 0.000000 0.750000
vt 0.083333 0.750000
vt 0.166667 0.750000
vt 0.250000 0.750000
vt 0.333333 0.750000
vt 0.416667 0.750000
vt 0.500000 0.750000
vt 0.583333 0.750000
vt 0.666667 0.750000
vt 0.750000 0.750000
vt 0.833333 0.750000
vt 0.916667 0.750000
vt 1.000000 0.750000
vt 0.000000 0.833333
vt 0.083333 0.833333
vt 0.166667 0.833333
vt 0.250000 0.833333
vt 0.333333 0.833333
vt 0.416667 0.833333
vt 0.500000 0.833333
vt 0.583333 0.833333
vt 0.666667 0.833333
vt 0.750000 0.833333
vt 0.833333 0.833333
vt 0.916667 0.833333
vt 1.000000 0.833333
vt 0.000000 0.916667
vt 0.083333 0.916667
vt 0.166667 0.916667
vt 0.250000 0.916667
vt 0.333333 0.916667
vt 0.416667 0.916667
vt 0.500000 0.916667
vt 0.583333 0.916667
vt 0.666667 0.916667
vt 0.750000 0.916667
vt 0.833333 0.916667
vt 0.916667 0.916667
vt 1.000000 0.916667
vt 0.041667 0.000000
vt 0.125000 0.000000
vt 0.208333 0.000000
vt 0.291667 0.000000
vt 0.375000 0.000000
vt 0.458333 0.000000
vt 0.541667 0.000000
vt 0.625000 0.000000
vt 0.708333 0.000000
vt 0.791667 0.000000
vt 0.875000 0.000000
vt 0.958333 0.000000
vt 0.041667 1.000000
vt 0.125000 1.000000
vt 0.208333 1.000000
vt 0.291667 1.000000
vt 0.375000 1.000000
vt 0.458333 1.000000
vt 0.541667 1.000000
vt 0.625000 1.000000
vt 0.708333 1.000000
vt 0.791667 1.000000
vt 0.875000 1.000000
vt 0.958333 1.000000
vn 0.122129 -0.990006 -0.070511
vn 0.070511 -0.990006 -0.122129
vn 0.125161 -0.968163 -0.216786
vn 0.216786 -0.968163 -0.125161
vn 0.000000 -0.990007 -0.141022
vn -0.000000 -0.968163 -0.250322
vn -0.070511 -0.990006 -0.122129
vn -0.125161 -0.968163 -0.216785
vn -0.122129 -0.990006 -0.070511
vn -0.216786 -0.968163 -0.125161
vn -0.141022 -0.990006 0.000000
vn -0.250322 -0.968163 0.000000
vn -0.122129 -0.990006 0.070511
vn -0.216785 -0.968163 0.125161
vn -0.070511 -0.990006 0.122129
vn -0.125161 -0.968163 0.216786
vn 0.000000 -0.990007 0.141022
vn 0.000000 -0.968163 0.250322
vn 0.070511 -0.990006 0.122129
vn 0.125161 -0.968163 0.216785
vn 0.122129 -0.990006 0.070511
vn 0.216786 -0.968163 0.125161
vn 0.141022 -0.990006 -0.000000
vn 0.250322 -0.968163 -0.000000
vn 0.198027 -0.918227 -0.342993
vn 0.342994 -0.918227 -0.198027
vn 0.000000 -0.918227 -0.396055
vn -0.198027 -0.918227 -0.342993
vn -0.342994 -0.918227 -0.198027
vn -0.396055 -0.918227 0.000000
vn -0.342993 -0.918227 0.198027
vn -0.198027 -0.918227 0.342993
vn -0.000000 -0.918227 0.396055
vn 0.198027 -0.918227 0.342993
vn 0.342994 -0.918227 0.198027
vn 0.396055 -0.918227 -0.000000
vn 0.297483 -0.803751 -0.515256
vn 0.515256 -0.803751 -0.297483
vn 0.000000 -0.803751 -0.594966
vn -0.297483 -0.803751 -0.515256
vn -0.515256 -0.803751 -0.297483
vn -0.594966 -0.803751 0.000000
vn -0.515256 -0.803751 0.297483
vn -0.297483 -0.803751 0.515256
vn 0.000000 -0.803751 0.594966
vn 0.297483 -0.803751 0.515256
vn 0.515256 -0.803751 0.297483
vn 0.594966 -0.803751 -0.000000
vn 0.423885 -0.530365 -0.734190
vn 0.734190 -0.530365 -0.423885
vn 0.000000 -0.530365 -0.847769
vn -0.423885 -0.530365 -0.734190
vn -0.734190 -0.530365 -0.423885
vn -0.847769 -0.530365 0.000000
vn -0.734190 -0.530365 0.423885
vn -0.423885 -0.530365 0.734190
vn 0.000000 -0.530365 0.847769
vn 0.423885 -0.530365 0.734190
vn 0.734190 -0.530365 0.423885
vn 0.847769 -0.530365 -0.000000
vn 0.500000 0.000000 -0.866025
vn 0.866025 0.000000 -0.500000
vn 0.000000 0.000000 -1.000000
vn -0.500000 -0.000000 -0.866025
vn -0.866025 0.000000 -0.500000
vn -1.000000 0.000000 0.000000
vn -0.866025 0.000000 0.500000
vn -0.500000 0.000000 0.866025
vn 0.000000 0.000000 1.000000
vn 0.500000 -0.000000 0.866025
vn 0.866025 0.000000 0.500000
vn 1.000000 0.000000 0.000000
vn 0.423885 0.530365 -0.734190
vn 0.734190 0.530365 -0.423885
vn 0.000000 0.530365 -0.847769
vn -0.423885 0.530365 -0.734190
vn -0.734190 0.530365 -0.423885
vn -0.847769 0.530365 -0.000000
vn -0.734190 0.530365 0.423885
vn -0.423885 0.530365 0.734190
vn 0.000000 0.530365 0.847769
vn 0.423885 0.530365 0.734190
vn 0.734190 0.530365 0.423885
vn 0.847769 0.530365 0.000000
vn 0.297483 0.803751 -0.515256
vn 0.515256 0.803751 -0.297483
vn 0.000000 0.803751 -0.594966
vn -0.297483 0.803751 -0.515256
vn -0.515256 0.803751 -0.297483
vn -0.594966 0.803751 0.000000
vn -0.515256 0.803751 0.297483
vn -0.297483 0.803751 0.515256
vn 0.000000 0.803751 0.594966
vn 0.297483 0.803751 0.515256
vn 0.515256 0.803751 0.297483
vn 0.594966 0.803751 -0.000000
vn 0.198027 0.918227 -0.342994
vn 0.342993 0.918227 -0.198027
vn 0.000000 0.918227 -0.396055
vn -0.198027 0.918227 -0.342993
vn -0.342993 0.918227 -0.198027
vn -0.396055 0.918227 0.000000
vn -0.342994 0.918227 0.198027
vn -0.198027 0.918227 0.342994
vn 0.000000 0.918227 0.396055
vn 0.198027 0.918227 0.342993
vn 0.342993 0.918227 0.198027
vn 0.396055 0.918227 -0.000000
vn 0.125161 0.968163 -0.216786
vn 0.216786 0.968163 -0.125161
vn 0.000000 0.968163 -0.250322
vn -0.125161 0.968163 -0.216786
vn -0.216786 0.968163 -0.125161
vn -0.250322 0.968163 -0.000000
vn -0.216786 0.968163 0.125161
vn -0.125161 0.968163 0.216786
vn 0.000000 0.968163 0.250322
vn 0.125161 0.968163 0.216786
vn 0.216786 0.968163 0.125161
vn 0.250322 0.968163 0.000000
vn 0.070511 0.990006 -0.122129
vn 0.122129 0.990006 -0.070511
vn 0.000000 0.990007 -0.141022
vn -0.070511 0.990006 -0.122129
vn -0.122129 0.990006 -0.070511
vn -0.141022 0.990006 -0.000000
vn -0.122129 0.990006 0.070511
vn -0.070511 0.990006 0.122129
vn 0.000000 0.990007 0.141022
vn 0.070511 0.990006 0.122129
vn 0.122129 0.990006 0.070511
vn 0.141022 0.990006 0.000000
vn -0.000000 -1.000000 -0.000000
vn -0.000000 1.000000 -0.000000
s 1
usemtl VRayMtl3SG
f 1/1/1 2/2/2 14/15/3 13/14/4
f 2/2/2 3/3/5 15/16/6 14/15/3
f 3/3/5 4/4/7 16/17/8 15/16/6
f 4/4/7 5/5/9 17/18/10 16/17/8
f 5/5/9 6/6/11 18/19/12 17/18/10
f 6/6/11 7/7/13 19/20/14 18/19/12
f 7/7/13 8/8/15 20/21/16 19/20/14
f 8/8/15 9/9/17 21/22/18 20/21/16
f 9/9/17 10/10/19 22/23/20 21/22/18
f 10/10/19 11/11/21 23/24/22 22/23/20
f 11/11/21 12/12/23 24/25/24 23/24/22
f 12/12/23 1/13/1 13/26/4 24/25/24
f 13/14/4 14/15/3 26/28/25 25/27/26
f 14/15/3 15/16/6 27/29/27 26/28/25
f 15/16/6 16/17/8 28/30/28 27/29/27
f 16/17/8 17/18/10 29/31/29 28/30/28
f 17/18/10 18/19/12 30/32/30 29/31/29
f 18/19/12 19/20/14 31/33/31 30/32/30
f 19/20/14 20/21/16 32/34/32 31/33/31
f 20/21/16 21/22/18 33/35/33 32/34/32
f 21/22/18 22/23/20 34/36/34 33/35/33
f 22/23/20 23/24/22 35/37/35 34/36/34
f 23/24/22 24/25/24 36/38/36 35/37/35
f 24/25/24 13/26/4 25/39/26 36/38/36
f 25/27/26 26/28/25 38/41/37 37/40/38
f 26/28/25 27/29/27 39/42/39 38/41/37
f 27/29/27 28/30/28 40/43/40 39/42/39
f 28/30/28 29/31/29 41/44/41 40/43/40
f 29/31/29 30/32/30 42/45/42 41/44/41
f 30/32/30 31/33/31 43/46/43 42/45/42
f 31/33/31 32/34/32 44/47/44 43/46/43
f 32/34/32 33/35/33 45/48/45 44/47/44
f 33/35/33 34/36/34 46/49/46 45/48/45
f 34/36/34 35/37/35 47/50/47 46/49/46
f 35/37/35 36/38/36 48/51/48 47/50/47
f 36/38/36 25/39/26 37/52/38 48/51/48
f 37/40/38 38/41/37 50/54/49 49/53/50
f 38/41/37 39/42/39 51/55/51 50/54/49
f 39/42/39 40/43/40 52/56/52 51/55/51
f 40/43/40 41/44/41 53/57/53 52/56/52
f 41/44/41 42/45/42 54/58/54 53/57/53
f 42/45/42 43/46/43 55/59/55 54/58/54
f 43/46/43 44/47/44 56/60/56 55/59/55
f 44/47/44 45/48/45 57/61/57 56/60/56
f 45/48/45 46/49/46 58/62/58 57/61/57
f 46/49/46 47/50/47 59/63/59 58/62/58
f 47/50/47 48/51/48 60/64/60 59/63/59
f 48/51/48 37/52/38 49/65/50 60/64/60
f 49/53/50 50/54/49 62/67/61 61/66/62
f 50/54/49 51/55/51 63/68/63 62/67/61
f 51/55/51 52/56/52 64/69/64 63/68/63
f 52/56/52 53/57/53 65/70/65 64/69/64
f 53/57/53 54/58/54 66/71/66 65/70/65
f 54/58/54 55/59/55 67/72/67 66/71/66
f 55/59/55 56/60/56 68/73/68 67/72/67
f 56/60/56 57/61/57 69/74/69 68/73/68
f 57/61/57 58/62/58 70/75/70 69/74/69
f 58/62/58 59/63/59 71/76/71 70/75/70
f 59/63/59 60/64/60 72/77/72 71/76/71
f 60/64/60 49/65/50 61/78/62 72/77/72
f 61/66/62 62/67/61 74/80/73 73/79/74
f 62/67/61 63/68/63 75/81/75 74/80/73
f 63/68/63 64/69/64 76/82/76 75/81/75
f 64/69/64 65/70/65 77/83/77 76/82/76
f 65/70/65 66/71/66 78/84/78 77/83/77
f 66/71/66 67/72/67 79/85/79 78/84/78
f 67/72/67 68/73/68 80/86/80 79/85/79
f 68/73/68 69/74/69 81/87/81 80/86/80
f 69/74/69 70/75/70 82/88/82 81/87/81
f 70/75/70 71/76/71 83/89/83 82/88/82
f 71/76/71 72/77/72 84/90/84 83/89/83
f 72/77/72 61/78/62 73/91/74 84/90/84
f 73/79/74 74/80/73 86/93/85 85/92/86
f 74/80/73 75/81/75 87/94/87 86/93/85
f 75/81/75 76/82/76 88/95/88 87/94/87
f 76/82/76 77/83/77 89/96/89 88/95/88
f 77/83/77 78/84/78 90/97/90 89/96/89
f 78/84/78 79/85/79 91/98/91 90/97/90
f 79/85/79 80/86/80 92/99/92 91/98/91
f 80/86/80 81/87/81 93/100/93 92/99/92
f 81/87/81 82/88/82 94/101/94 93/100/93
f 82/88/82 83/89/83 95/102/95 94/101/94
f 83/89/83 84/90/84 96/103/96 95/102/95
f 84/90/84 73/91/74 85/104/86 96/103/96
f 85/92/86 86/93/85 98/106/97 97/105/98
f 86/93/85 87/94/87 99/107/99 98/106/97
f 87/94/87 88/95/88 100/108/100 99/107/99
f 88/95/88 89/96/89 101/109/101 100/108/100
f 89/96/89 90/97/90 102/110/102 101/109/101
f 90/97/90 91/98/91 103/111/103 102/110/102
f 91/98/91 92/99/92 104/112/104 103/111/103
f 92/99/92 93/100/93 105/113/105 104/112/104
f 93/100/93 94/101/94 106/114/106 105/113/105
f 94/101/94 95/102/95 107/115/107 106/114/106
f 95/102/95 96/103/96 108/116/108 107/115/107
f 96/103/96 85/104/86 97/117/98 108/116/108
f 97/105/98 98/106/97 110/119/109 109/118/110
f 98/106/97 99/107/99 111/120/111 110/119/109
f 99/107/99 100/108/100 112/121/112 111/120/111
f 100/108/100 101/109/101 113/122/113 112/121/112
f 101/109/101 102/110/102 114/123/114 113/122/113
f 102/110/102 103/111/103 115/124/115 114/123/114
f 103/111/103 104/112/104 116/125/116 115/124/115
f 104/112/104 105/113/105 117/126/117 116/125/116
f 105/113/105 106/114/106 118/127/118 117/126/117
f 106/114/106 107/115/107 119/128/119 118/127/118
f 107/115/107 108/116/108 120/129/120 119/128/119
f 108/116/108 97/117/98 109/130/110 120/129/120
f 109/118/110 110/119/109 122/132/121 121/131/122
f 110/119/109 111/120/111 123/133/123 122/132/121
f 111/120/111 112/121/112 124/134/124 123/133/123
f 112/121/112 113/122/113 125/135/125 124/134/124
f 113/122/113 114/123/114 126/136/126 125/135/125
f 114/123/114 115/124/115 127/137/127 126/136/126
f 115/124/115 116/125/116 128/138/128 127/137/127
f 116/125/116 117/126/117 129/139/129 128/138/128
f 117/126/117 118/127/118 130/140/130 129/139/129
f 118/127/118 119/128/119 131/141/131 130/140/130
f 119/128/119 120/129/120 132/142/132 131/141/131
f 120/129/120 109/130/110 121/143/122 132/142/132
f 2/2/2 1/1/1 133/144/133
f 3/3/5 2/2/2 133/145/133
f 4/4/7 3/3/5 133/146/133
f 5/5/9 4/4/7 133/147/133
f 6/6/11 5/5/9 133/148/133
f 7/7/13 6/6/11 133/149/133
f 8/8/15 7/7/13 133/150/133
f 9/9/17 8/8/15 133/151/133
f 10/10/19 9/9/17 133/152/133
f 11/11/21 10/10/19 133/153/133
f 12/12/23 11/11/21 133/154/133
f 1/13/1 12/12/23 133/155/133
f 121/131/122 122/132/121 134/156/134
f 122/132/121 123/133/123 134/157/134
f 123/133/123 124/134/124 134/158/134
f 124/134/124 125/135/125 134/159/134
f 125/135/125 126/136/126 134/160/134
f 126/136/126 127/137/127 134/161/134
f 127/137/127 128/138/128 134/162/134
f 128/138/128 129/139/129 134/163/134
f 129/139/129 130/140/130 134/164/134
f 130/140/130 131/141/131 134/165/134
f 131/141/131 132/142/132 134/166/134
f 132/142/132 121/143/122 134/167/134
